<?xml version="1.0" encoding="UTF-8"?>
<svg width="512px" height="512px" viewBox="0 0 512 512" version="1.1" xmlns="http://www.w3.org/2000/svg" xmlns:xlink="http://www.w3.org/1999/xlink">
    <title>Android Icon</title>
    <defs>
        <path d="M471.578947,0 C493.902878,0 512,18.0971217 512,40.4210526 L512,40.4210526 L512,471.578947 C512,493.902878 493.902878,512 471.578947,512 L471.578947,512 L40.4210526,512 C18.0971217,512 0,493.902878 0,471.578947 L0,471.578947 L0,40.4210526 C0,18.0971217 18.0971217,0 40.4210526,0 L40.4210526,0 Z" id="path-1"></path>
        <linearGradient x1="50%" y1="0%" x2="50%" y2="100%" id="linearGradient-3">
            <stop stop-color="#007FE8" offset="0%"></stop>
            <stop stop-color="#006BC4" offset="100%"></stop>
        </linearGradient>
    </defs>
    <g id="Android-Icon" stroke="none" stroke-width="1" fill="none" fill-rule="evenodd">
        <mask id="mask-2" fill="white">
            <use xlink:href="#path-1"></use>
        </mask>
        <g id="Shape" fill-rule="nonzero"></g>
        <g id="Group" mask="url(#mask-2)" fill-rule="nonzero">
            <g id="app-icon">
                <rect id="b5baa7d7-444b-418d-ae2e-9b8dc8e9d04f" fill="url(#linearGradient-3)" x="0" y="0" width="512" height="512"></rect>
                <g id="bcbd98b8-57be-4933-9605-74b8d135bc38" transform="translate(84.000000, 85.000000)" fill="#FFFFFF">
                    <g id="b2c3269b-dec2-4817-8740-befb6a86b290">
                        <path d="M37.44,201.72 C40.557874,184.253808 48.7201331,168.082245 60.92,155.2 C72.8780294,143.223111 89.2870864,136.772554 106.2,137.4 C128.333333,137.4 143.84,149.106667 152.72,172.52 C158.373333,187.373333 161.186667,208.2 161.16,235 C161.16,264.68 156.866667,287.613333 148.28,303.8 C137.08,325.133333 118.106667,335.8 91.36,335.8 C80.7732975,335.569639 70.3405483,333.21649 60.68,328.88 C47.16,323.226667 40.4,316.453333 40.4,308.56 C40.4,306.906667 45.84,302.133333 56.72,294.24 C67.6,286.24 73.08,276.56 73.08,265.04 C73.1826441,256.069287 69.6978076,247.429197 63.4,241.04 C57.3797069,234.522158 48.8718518,230.871779 40,231 C29.129952,230.59378 18.6297776,234.981039 11.28,243 C3.95580836,251.116614 0.0568583609,261.75272 0.4,272.68 C-0.0275837322,295.981193 11.5632528,317.863242 31.08,330.6 C49.940152,343.669952 72.460144,350.420347 95.4,349.88 C129.116601,350.499143 161.791631,338.190547 186.72,315.48 C211.646894,294.00326 225.70852,262.53689 225.08,229.64 C225.276437,200.698133 213.110551,173.048393 191.64,153.64 C170.942017,132.982406 142.842271,121.460214 113.6,121.64 C101.047923,121.295166 88.5833066,123.8264 77.16,129.04 C65.3259192,135.252373 54.4089402,143.073291 44.72,152.28 L53.2,62.64 C64.44,64.2 76.24,65.64 88.6,67.04 C99.3688309,68.3023082 110.19787,68.9832959 121.04,69.08 C144.48,69.08 163.453333,63.52 177.96,52.4 C192.466667,41.28 202.2,24.5733333 207.16,2.28 L194.32,0.32 C191.125611,8.4693421 185.277421,15.3039735 177.72,19.72 C169.524848,23.8623886 160.417319,25.8709978 151.24,25.56 C138.468922,25.6047053 125.721148,24.4665113 113.16,22.16 C100.92,19.92 77.9866667,14.4533333 44.36,5.76 L23.56,200.24 L37.44,201.72 Z" id="Path"></path>
                    </g>
                    <g id="e528b2a1-6a69-420e-8bda-933055df79ef" transform="translate(176.000000, 131.000000)">
                        <path d="M167.68,87.04 C165.546667,62.5066667 157.893333,42.32 144.72,26.48 C130.719228,9.28248378 109.48365,-0.380814452 87.32,0.36 C63.6729076,-0.25179446 40.9229824,9.42312559 24.96,26.88 C8.6416088,44.146211 -0.249040896,67.1268887 0.2,90.88 C-0.233481448,115.694587 8.28662606,139.834891 24.2,158.88 C39.3991617,177.865026 62.6087896,188.640925 86.92,188 C107.28054,188.345188 126.951234,180.623578 141.64,166.52 C156.677684,152.608323 165.966555,133.573985 167.68,113.16 L156.2,113.16 C153.587434,128.321328 147.035136,142.529469 137.2,154.36 C127.49374,166.231727 112.934184,173.070306 97.6,172.96 C74.1066667,172.96 58.28,165.173333 50.12,149.6 C44.28,138.8 41.3733333,120.453333 41.4,94.56 L41,87.04 L167.68,87.04 Z M41.4,76 C41.4,57.52 44.3333333,42.7466667 50.2,31.68 C57.64,17.4133333 70.0266667,10.28 87.36,10.28 C100.002974,9.7708337 111.985035,15.9365078 118.92,26.52 C125.610392,36.8753475 128.94842,49.0402944 128.48,61.36 L128.48,76 L41.4,76 Z" id="Shape"></path>
                    </g>
                </g>
            </g>
        </g>
    </g>
</svg>