<svg xmlns="http://www.w3.org/2000/svg" viewBox="0 0 512 512"><defs><style>.f179511e-0dd9-433d-ad8b-c728a0461a80{fill:#006bc4;}.bcc111f0-8252-4a0f-8d39-af01361c18ad{fill:#fff;}</style></defs><g id="f5b8261f-63cc-4ddb-a02b-41af221a21e5" data-name="Layer 2"><g id="f52c150f-0a62-4046-a147-186b2df571cc" data-name="app icon"><g id="ae9b0a19-2fe6-48b0-8528-aa3630ec37af" data-name="backgrounds"><rect id="bbb72e23-379b-404a-a5f2-ab746f4c4847" data-name="blue background" class="f179511e-0dd9-433d-ad8b-c728a0461a80" width="512" height="512"/></g><g id="a10b79e8-eea5-4da8-85c3-133d02412948" data-name="5e"><path class="bcc111f0-8252-4a0f-8d39-af01361c18ad" d="M118.11,283.38q6.09-29.4,24.09-47.66t46.4-18.26q34,0,47.66,36,8.63,22.83,8.62,63.9,0,45.63-13.18,70.48-17.25,33-58.32,33-14.72,0-31.44-7.1-20.79-8.61-20.79-20.79,0-2.54,16.74-14.7t16.73-29.92a34.46,34.46,0,0,0-9.89-24.59,32,32,0,0,0-24.08-10.4q-18.25,0-29.41,12.17T80.08,355.9q0,37,31.44,59.32Q139.41,435,177.44,435q54.26,0,93.56-35.24t39.3-88q0-45.13-34.27-77.84t-80-32.7q-21.85,0-37.32,7.6T125.5,232.65l8.78-91.77q17.25,2.35,36.27,4.48a303,303,0,0,0,33.23,2.12q36,0,58.33-17.11T292,79l-13.18-2q-6.09,13.94-17,19.9t-27.13,6a214.73,214.73,0,0,1-39.05-3.46q-18.76-3.47-70.48-16.82l-21.3,199.28Z"/><path class="bcc111f0-8252-4a0f-8d39-af01361c18ad" d="M431.92,300.11q-3.26-37.73-23.53-62.06-22.32-26.78-58.82-26.78-38.55,0-63.89,27.18t-25.36,65.72q0,40.15,24.66,69.77t64.2,29.62q32.61,0,56-22t26.7-54.65H420.16q-5.28,26-19.48,42.19Q384,388.15,360.12,388.14q-36.12,0-48.68-23.93-8.93-16.63-8.93-56.39l-.4-7.71ZM302.51,288.75q0-28.38,9-45.43,11.46-21.9,38.08-21.91,20.86,0,32.33,16.64,9.82,14.2,9.83,35.69v15Z"/></g></g></g></svg>