<svg xmlns="http://www.w3.org/2000/svg" viewBox="0 0 16 16"><defs><style>.e3f884be-b81e-436a-b899-6f6d08352679{fill:none;}.aa0da689-b1bd-4c42-a37e-0278cacff365{fill:#fff;}.b004db5e-639e-43ac-93bc-aa047513415f{fill:#004278;}</style></defs><g id="bc9eb892-02d2-4cf0-af52-f7438ab9750f" data-name="Layer 2"><g id="a012f699-facf-4c36-a25d-67db9bdeb4c7" data-name="favicon"><rect class="e3f884be-b81e-436a-b899-6f6d08352679" width="16" height="16"/><g id="b9135f5b-7984-4753-a0d7-acb30fd76e1c" data-name="5"><path class="aa0da689-b1bd-4c42-a37e-0278cacff365" d="M2.53,9.09a3.63,3.63,0,0,1,1-1.89,2.44,2.44,0,0,1,1.84-.73A1.93,1.93,0,0,1,7.22,7.9a7.37,7.37,0,0,1,.34,2.53A6.2,6.2,0,0,1,7,13.23a2.4,2.4,0,0,1-2.31,1.3,3.16,3.16,0,0,1-1.25-.28c-.55-.23-.83-.5-.83-.82,0-.07.23-.26.67-.59A1.42,1.42,0,0,0,4,11.66a1.38,1.38,0,0,0-.39-1,1.28,1.28,0,0,0-1-.41,1.49,1.49,0,0,0-1.16.48A1.72,1.72,0,0,0,1,12a2.74,2.74,0,0,0,1.24,2.35,4.44,4.44,0,0,0,2.62.79,5.35,5.35,0,0,0,3.7-1.4,4.5,4.5,0,0,0,1.56-3.49A4.09,4.09,0,0,0,8.79,7.13a4.41,4.41,0,0,0-3.17-1.3,3.29,3.29,0,0,0-1.47.3,6,6,0,0,0-1.32.94l.35-3.63,1.43.17a11.38,11.38,0,0,0,1.32.09A3.71,3.71,0,0,0,8.24,3,3.36,3.36,0,0,0,9.43,1L8.91.9a1.54,1.54,0,0,1-.68.79,2.17,2.17,0,0,1-1.07.24,8.68,8.68,0,0,1-1.55-.14q-.75-.14-2.79-.66L2,9Z"/><path class="b004db5e-639e-43ac-93bc-aa047513415f" d="M8.91.9,9.43,1A3.36,3.36,0,0,1,8.24,3a3.71,3.71,0,0,1-2.31.68,11.38,11.38,0,0,1-1.32-.09L3.18,3.44,2.83,7.07a6,6,0,0,1,1.32-.94,3.29,3.29,0,0,1,1.47-.3,4.41,4.41,0,0,1,3.17,1.3,4.09,4.09,0,0,1,1.36,3.08A4.5,4.5,0,0,1,8.59,13.7a5.35,5.35,0,0,1-3.7,1.4,4.44,4.44,0,0,1-2.62-.79A2.74,2.74,0,0,1,1,12a1.72,1.72,0,0,1,.44-1.21,1.49,1.49,0,0,1,1.16-.48,1.28,1.28,0,0,1,1,.41,1.38,1.38,0,0,1,.39,1,1.42,1.42,0,0,1-.66,1.18c-.44.33-.67.52-.67.59,0,.32.28.59.83.82a3.16,3.16,0,0,0,1.25.28A2.4,2.4,0,0,0,7,13.23a6.2,6.2,0,0,0,.52-2.8A7.37,7.37,0,0,0,7.22,7.9,1.93,1.93,0,0,0,5.33,6.47a2.44,2.44,0,0,0-1.84.73,3.63,3.63,0,0,0-1,1.89L2,9l.85-7.9q2,.53,2.79.66a8.68,8.68,0,0,0,1.55.14,2.17,2.17,0,0,0,1.07-.24A1.54,1.54,0,0,0,8.91.9m0-.9a.9.9,0,0,0-.83.54A.66.66,0,0,1,7.8.9,1.39,1.39,0,0,1,7.16,1,7.81,7.81,0,0,1,5.77.9C5.3.82,4.38.6,3,.25a.83.83,0,0,0-.22,0A.94.94,0,0,0,2.3.38.87.87,0,0,0,1.92,1l-.85,7.9a.92.92,0,0,0,.29.76,2.41,2.41,0,0,0-.56.45A2.62,2.62,0,0,0,.12,12a3.66,3.66,0,0,0,1.63,3.09A5.3,5.3,0,0,0,4.89,16,6.29,6.29,0,0,0,9.2,14.37a5.38,5.38,0,0,0,1.86-4.16A5,5,0,0,0,9.42,6.47a5.38,5.38,0,0,0-3.8-1.55,4.38,4.38,0,0,0-1.71.32L4,4.45l.52.06a12.86,12.86,0,0,0,1.42.09,4.61,4.61,0,0,0,2.86-.86,4.32,4.32,0,0,0,1.52-2.56.86.86,0,0,0-.14-.71.93.93,0,0,0-.6-.38L9,0ZM3.35,9.48a1.72,1.72,0,0,0,.07-.21,2.84,2.84,0,0,1,.71-1.44,1.58,1.58,0,0,1,1.2-.45c.37,0,.76.1,1,.84a6.58,6.58,0,0,1,.28,2.21,5.36,5.36,0,0,1-.41,2.37h0a1.5,1.5,0,0,1-1.51.82A2.17,2.17,0,0,1,4,13.48a2.32,2.32,0,0,0,.91-1.82,2.28,2.28,0,0,0-.65-1.6,2.15,2.15,0,0,0-.89-.58Z"/></g><g id="be00e22c-3b36-41d8-a8d0-163773ee0cc4" data-name="e"><path class="aa0da689-b1bd-4c42-a37e-0278cacff365" d="M15,9.75A4.23,4.23,0,0,0,14,7.29a2.88,2.88,0,0,0-2.33-1.06A3.33,3.33,0,0,0,9.18,7.3a3.7,3.7,0,0,0-1,2.61,4.23,4.23,0,0,0,1,2.77,3.15,3.15,0,0,0,2.54,1.17A3.14,3.14,0,0,0,13.92,13,3.37,3.37,0,0,0,15,10.81h-.46a3.6,3.6,0,0,1-.77,1.67,2,2,0,0,1-1.61.76,2,2,0,0,1-1.93-1,5,5,0,0,1-.36-2.24v-.3ZM9.84,9.3a3.84,3.84,0,0,1,.36-1.8,1.57,1.57,0,0,1,1.51-.87A1.46,1.46,0,0,1,13,7.29a2.42,2.42,0,0,1,.39,1.41v.6Z"/><path class="b004db5e-639e-43ac-93bc-aa047513415f" d="M11.71,6.23A2.88,2.88,0,0,1,14,7.29,4.23,4.23,0,0,1,15,9.75H9.83v.3a5,5,0,0,0,.36,2.24,2,2,0,0,0,1.93,1,2,2,0,0,0,1.61-.76,3.6,3.6,0,0,0,.77-1.67H15A3.37,3.37,0,0,1,13.92,13a3.14,3.14,0,0,1-2.23.87,3.15,3.15,0,0,1-2.54-1.17,4.23,4.23,0,0,1-1-2.77,3.7,3.7,0,0,1,1-2.61,3.33,3.33,0,0,1,2.53-1.07M9.84,9.3h3.54V8.7A2.42,2.42,0,0,0,13,7.29a1.46,1.46,0,0,0-1.28-.66,1.57,1.57,0,0,0-1.51.87,3.84,3.84,0,0,0-.36,1.8m1.87-4a4.2,4.2,0,0,0-3.2,1.37A4.6,4.6,0,0,0,7.27,9.91a5.11,5.11,0,0,0,1.18,3.34,4,4,0,0,0,3.24,1.5,4,4,0,0,0,2.84-1.11,4.22,4.22,0,0,0,1.34-2.74.86.86,0,0,0-.16-.62.94.94,0,0,0,.16-.61,5.21,5.21,0,0,0-1.13-3,3.84,3.84,0,0,0-1.35-1,4,4,0,0,0-1.68-.35Zm-.88,3.07A1.84,1.84,0,0,1,11,7.92h0a.69.69,0,0,1,.71-.39.58.58,0,0,1,.54.27,1.34,1.34,0,0,1,.21.59Zm-.07,2.26h2.86a2.7,2.7,0,0,1-.57,1.24,1.13,1.13,0,0,1-.92.44c-.89,0-1.06-.33-1.13-.46h0a3.18,3.18,0,0,1-.23-1.21Z"/></g></g></g></svg>