<svg xmlns="http://www.w3.org/2000/svg" viewBox="0 0 125.8 128"><defs><style>.b9ab784b-e993-4fb2-a470-d13edfd3cdfb{fill:#fff;}</style></defs><g id="b5221353-fca9-4c07-86dc-3f02a96024e7" data-name="Layer 2"><g id="b7848982-7bc9-4f06-88e1-0eefc4e1cb5d" data-name="white logo"><path class="b9ab784b-e993-4fb2-a470-d13edfd3cdfb" d="M13.6,73.79q2.18-10.52,8.61-17T38.8,50.22q12.15,0,17,12.87,3.09,8.16,3.08,22.85,0,16.32-4.71,25.2Q48,122.93,33.36,122.92a28.87,28.87,0,0,1-11.24-2.53q-7.44-3.09-7.43-7.44c0-.6,2-2.36,6-5.26s6-6.46,6-10.69a12.36,12.36,0,0,0-3.53-8.8,11.47,11.47,0,0,0-8.62-3.71A13.58,13.58,0,0,0,4,88.84,15.49,15.49,0,0,0,0,99.72Q0,113,11.24,120.93q10,7.06,23.57,7.07a48.43,48.43,0,0,0,33.45-12.6,40.49,40.49,0,0,0,14-31.46q0-16.12-12.25-27.83T41.47,44.42a30,30,0,0,0-13.34,2.72,52.57,52.57,0,0,0-11.89,8.51l3.14-32.81q6.16.84,13,1.6a107.79,107.79,0,0,0,11.88.76q12.87,0,20.85-6.12T75.78.72L71.07,0A14.22,14.22,0,0,1,65,7.11a19.94,19.94,0,0,1-9.7,2.14A76.32,76.32,0,0,1,41.34,8q-6.72-1.25-25.2-6L8.52,73.25Z"/><path class="b9ab784b-e993-4fb2-a470-d13edfd3cdfb" d="M125.8,79.77q-1.17-13.48-8.41-22.19-8-9.57-21-9.57a29.9,29.9,0,0,0-22.84,9.72,33.21,33.21,0,0,0-9.07,23.49,37.76,37.76,0,0,0,8.82,25q8.82,10.59,22.95,10.59a28.23,28.23,0,0,0,20-7.88,30,30,0,0,0,9.55-19.54h-4.21q-1.89,9.28-7,15.09a18.54,18.54,0,0,1-14.5,6.82q-12.91,0-17.41-8.56-3.19-5.94-3.19-20.16l-.15-2.76ZM79.53,75.71q0-10.15,3.22-16.24,4.09-7.84,13.61-7.84a13.26,13.26,0,0,1,11.57,5.95q3.51,5.09,3.51,12.76v5.37Z"/></g></g></svg>