<svg xmlns="http://www.w3.org/2000/svg" viewBox="0 0 13.95 14.19"><g id="a455ec20-8115-465b-9b89-a8100393ac26" data-name="Layer 2"><g id="a8f39626-9bea-491a-9617-2011711a97d7" data-name="template"><path d="M1.51,8.18a3.69,3.69,0,0,1,1-1.89A2.49,2.49,0,0,1,4.3,5.57,1.92,1.92,0,0,1,6.19,7a7.43,7.43,0,0,1,.34,2.54A6,6,0,0,1,6,12.32,2.41,2.41,0,0,1,3.7,13.63a3.34,3.34,0,0,1-1.25-.28c-.55-.23-.82-.51-.82-.83,0-.06.22-.26.66-.58A1.43,1.43,0,0,0,3,10.75a1.36,1.36,0,0,0-.39-1,1.24,1.24,0,0,0-.95-.41,1.53,1.53,0,0,0-1.17.48A1.73,1.73,0,0,0,0,11.06a2.76,2.76,0,0,0,1.25,2.35,4.38,4.38,0,0,0,2.61.78,5.34,5.34,0,0,0,3.71-1.4A4.48,4.48,0,0,0,9.13,9.31,4.15,4.15,0,0,0,7.77,6.22,4.49,4.49,0,0,0,4.6,4.92a3.34,3.34,0,0,0-1.48.31,5.73,5.73,0,0,0-1.32.94l.35-3.64,1.44.18a11,11,0,0,0,1.31.08,3.74,3.74,0,0,0,2.32-.67A3.41,3.41,0,0,0,8.4.08L7.88,0a1.61,1.61,0,0,1-.67.79A2.21,2.21,0,0,1,6.13,1,8.68,8.68,0,0,1,4.58.89C4.09.8,3.16.57,1.79.22L.94,8.12Z"/><path d="M14,8.84A4.36,4.36,0,0,0,13,6.38a2.9,2.9,0,0,0-2.33-1.06A3.3,3.3,0,0,0,8.15,6.4a3.69,3.69,0,0,0-1,2.6,4.19,4.19,0,0,0,1,2.77,3.16,3.16,0,0,0,2.55,1.17,3.14,3.14,0,0,0,2.22-.87A3.33,3.33,0,0,0,14,9.91h-.47a3.64,3.64,0,0,1-.77,1.67,2.07,2.07,0,0,1-1.61.75,2,2,0,0,1-1.93-.95,5,5,0,0,1-.35-2.23l0-.31ZM8.82,8.39a4,4,0,0,1,.35-1.8,1.58,1.58,0,0,1,1.51-.87A1.49,1.49,0,0,1,12,6.38a2.52,2.52,0,0,1,.38,1.42v.59Z"/></g></g></svg>