<svg xmlns="http://www.w3.org/2000/svg" xmlns:xlink="http://www.w3.org/1999/xlink" viewBox="0 0 128 128"><defs><style>.f42f21e8-f4c1-453e-9f28-e26db20ae935{fill:url(#f02287bb-0fe1-4e9c-bcaa-52c9906846d7);}.b30af0a1-bcdf-4146-bd1a-f64629ae1cb3{fill:#fff;}</style><linearGradient id="f02287bb-0fe1-4e9c-bcaa-52c9906846d7" x1="64" x2="64" y2="128" gradientUnits="userSpaceOnUse"><stop offset="0" stop-color="#007fe8"/><stop offset="1" stop-color="#006bc4"/></linearGradient></defs><g id="b4a5f3b7-b580-4d5e-a005-81e9127a21a9" data-name="Layer 2"><g id="b994867c-6aae-44c5-b12a-b74ab31ddd1a" data-name="app icon"><rect id="b5baa7d7-444b-418d-ae2e-9b8dc8e9d04f" data-name="blue background" class="f42f21e8-f4c1-453e-9f28-e26db20ae935" width="128" height="128"/><g id="bcbd98b8-57be-4933-9605-74b8d135bc38" data-name="5e"><g id="b2c3269b-dec2-4817-8740-befb6a86b290" data-name="5"><path class="b30af0a1-bcdf-4146-bd1a-f64629ae1cb3" d="M30.36,71.68a22.72,22.72,0,0,1,5.87-11.63A15.2,15.2,0,0,1,47.55,55.6q8.3,0,11.63,8.78Q61.3,69.95,61.29,80q0,11.13-3.22,17.2-4.2,8-14.23,8a19.78,19.78,0,0,1-7.67-1.73q-5.07-2.12-5.07-5.08,0-.62,4.08-3.58c2.72-2,4.09-4.42,4.09-7.3a8.41,8.41,0,0,0-2.42-6A7.81,7.81,0,0,0,31,79a9.27,9.27,0,0,0-7.18,3,10.58,10.58,0,0,0-2.72,7.42,16.92,16.92,0,0,0,7.67,14.48,27.11,27.11,0,0,0,16.08,4.82,33,33,0,0,0,22.83-8.6,27.63,27.63,0,0,0,9.59-21.46,25.38,25.38,0,0,0-8.36-19,27.38,27.38,0,0,0-19.51-8,20.58,20.58,0,0,0-9.11,1.85,36.2,36.2,0,0,0-8.11,5.81L34.3,36.91c2.81.39,5.76.75,8.85,1.1a75.44,75.44,0,0,0,8.11.51q8.79,0,14.23-4.17t7.3-12.53l-3.21-.49a9.73,9.73,0,0,1-4.15,4.85,13.65,13.65,0,0,1-6.62,1.46,51.71,51.71,0,0,1-9.52-.85q-4.59-.84-17.2-4.1l-5.2,48.62Z"/></g><g id="e528b2a1-6a69-420e-8bda-933055df79ef" data-name="e"><path class="b30af0a1-bcdf-4146-bd1a-f64629ae1cb3" d="M106.92,75.76q-.8-9.2-5.74-15.14a17.74,17.74,0,0,0-14.35-6.53,20.41,20.41,0,0,0-15.59,6.63,22.67,22.67,0,0,0-6.19,16,25.81,25.81,0,0,0,6,17A19.43,19.43,0,0,0,86.73,101a19.28,19.28,0,0,0,13.68-5.37,20.51,20.51,0,0,0,6.51-13.34h-2.87a21.94,21.94,0,0,1-4.75,10.3,12.67,12.67,0,0,1-9.9,4.65q-8.81,0-11.87-5.84-2.19-4.05-2.18-13.76l-.1-1.88ZM75.35,73q0-6.93,2.2-11.08,2.79-5.35,9.29-5.35a9,9,0,0,1,7.89,4.06,15,15,0,0,1,2.39,8.71V73Z"/></g></g></g></g></svg>