<svg xmlns="http://www.w3.org/2000/svg" viewBox="0 0 128 128"><defs><style>.f6393a1d-d916-457a-9f3a-e760941ad10e{fill:#006bc4;}.b3253fd8-d947-4785-b21e-50bbc365f27f{fill:#fff;}</style></defs><g id="e29b0a04-6b9d-4992-ad5b-ef48d22f9618" data-name="Layer 2"><g id="edaa9f19-2b8c-4ab6-b0d9-02b8818ec73d" data-name="app icon"><g id="bd0e15f7-ed65-4190-b976-645c8c79d1cd" data-name="backgrounds"><rect id="e6e4d977-3797-437b-a414-ba3e706a75cc" data-name="blue background" class="f6393a1d-d916-457a-9f3a-e760941ad10e" width="128" height="128"/></g><g id="ba3eb990-3112-48fe-88ed-6b6f812e85ed" data-name="5e"><path class="b3253fd8-d947-4785-b21e-50bbc365f27f" d="M29.53,70.85a23.18,23.18,0,0,1,6-11.92,15.58,15.58,0,0,1,11.6-4.56q8.49,0,11.92,9,2.15,5.7,2.15,16,0,11.41-3.3,17.62-4.31,8.25-14.57,8.24a20.17,20.17,0,0,1-7.86-1.77q-5.2-2.16-5.2-5.2,0-.63,4.18-3.68t4.19-7.48a8.65,8.65,0,0,0-2.48-6.15,8,8,0,0,0-6-2.59,9.49,9.49,0,0,0-7.35,3A10.82,10.82,0,0,0,20,89q0,9.25,7.86,14.84a27.79,27.79,0,0,0,16.48,4.94,33.88,33.88,0,0,0,23.39-8.81,28.31,28.31,0,0,0,9.82-22A26,26,0,0,0,69,58.49a28,28,0,0,0-20-8.18,21,21,0,0,0-9.33,1.9,37.16,37.16,0,0,0-8.32,5.95l2.2-22.94c2.87.39,5.9.77,9.07,1.12a77.08,77.08,0,0,0,8.3.53q9,0,14.59-4.28T73,19.75l-3.3-.5a9.91,9.91,0,0,1-4.24,5,14,14,0,0,1-6.79,1.5,53.45,53.45,0,0,1-9.76-.87Q44.24,24,31.3,20.64L26,70.47Z"/><path class="b3253fd8-d947-4785-b21e-50bbc365f27f" d="M108,75q-.81-9.44-5.88-15.52a18.21,18.21,0,0,0-14.71-6.69,20.9,20.9,0,0,0-16,6.79A23.21,23.21,0,0,0,65.08,76a26.38,26.38,0,0,0,6.17,17.45,20.86,20.86,0,0,0,30.06,1.89A21,21,0,0,0,108,81.72H105a22.42,22.42,0,0,1-4.87,10.55A13,13,0,0,1,90,97q-9,0-12.17-6Q75.63,86.9,75.63,77L75.53,75ZM75.63,72.19q0-7.09,2.25-11.36,2.87-5.47,9.52-5.48a9.25,9.25,0,0,1,8.08,4.16,15.32,15.32,0,0,1,2.46,8.93v3.75Z"/></g></g></g></svg>