<svg xmlns="http://www.w3.org/2000/svg" viewBox="0 0 128 128"><defs><style>.be416642-4282-423f-bc68-3b337cfbd5c5{fill:none;}</style></defs><g id="acfb0ee1-951f-45b6-8b10-f04ec3d711ed" data-name="Layer 2"><g id="b3993024-498d-4c11-b5b8-e137fb82fa96" data-name="black logo"><rect class="be416642-4282-423f-bc68-3b337cfbd5c5" width="128" height="128"/><path d="M14.7,73.79q2.18-10.52,8.61-17T39.9,50.22q12.15,0,17,12.87Q60,71.25,60,85.94q0,16.32-4.71,25.2-6.16,11.79-20.85,11.78a28.87,28.87,0,0,1-11.24-2.53q-7.44-3.09-7.43-7.44c0-.6,2-2.36,6-5.26s6-6.46,6-10.69a12.36,12.36,0,0,0-3.53-8.8,11.47,11.47,0,0,0-8.61-3.71A13.59,13.59,0,0,0,5.09,88.84a15.49,15.49,0,0,0-4,10.88q0,13.23,11.24,21.21,10,7.06,23.57,7.07a48.43,48.43,0,0,0,33.45-12.6,40.49,40.49,0,0,0,14-31.46q0-16.12-12.25-27.83T42.57,44.42a30,30,0,0,0-13.34,2.72,52.57,52.57,0,0,0-11.89,8.51l3.14-32.81q6.16.84,13,1.6a107.79,107.79,0,0,0,11.88.76q12.87,0,20.86-6.12T76.89.72L72.17,0A14.17,14.17,0,0,1,66.1,7.11a19.91,19.91,0,0,1-9.7,2.14A76.32,76.32,0,0,1,42.44,8q-6.7-1.25-25.2-6L9.62,73.25Z"/><path d="M126.9,79.77q-1.17-13.48-8.41-22.19-8-9.57-21-9.57a29.91,29.91,0,0,0-22.85,9.72,33.2,33.2,0,0,0-9.06,23.49,37.75,37.75,0,0,0,8.81,25q8.82,10.59,23,10.59a28.23,28.23,0,0,0,20-7.88,30,30,0,0,0,9.55-19.54h-4.21q-1.89,9.28-7,15.09a18.54,18.54,0,0,1-14.5,6.82q-12.92,0-17.41-8.56-3.19-5.94-3.19-20.16l-.14-2.76ZM80.63,75.71q0-10.15,3.22-16.24,4.09-7.84,13.61-7.84A13.26,13.26,0,0,1,109,57.58q3.51,5.09,3.51,12.76v5.37Z"/></g></g></svg>