<?xml version="1.0" standalone="no"?>
<!DOCTYPE svg PUBLIC "-//W3C//DTD SVG 20010904//EN"
 "http://www.w3.org/TR/2001/REC-SVG-20010904/DTD/svg10.dtd">
<svg version="1.0" xmlns="http://www.w3.org/2000/svg"
 width="700.000000pt" height="700.000000pt" viewBox="0 0 700.000000 700.000000"
 preserveAspectRatio="xMidYMid meet">
<metadata>
Created by potrace 1.11, written by Peter Selinger 2001-2013
</metadata>
<g transform="translate(0.000000,700.000000) scale(0.100000,-0.100000)"
fill="#000000" stroke="none">
<path d="M3934 6958 c-52 -117 -164 -247 -274 -319 -30 -20 -95 -50 -145 -67
-168 -58 -224 -66 -500 -64 -266 1 -396 9 -604 38 -103 14 -274 47 -451 88
-128 29 -245 57 -260 60 -8 3 -37 9 -64 16 -27 6 -113 27 -190 46 -78 19 -148
37 -156 39 -8 1 -98 24 -199 49 -101 26 -185 45 -188 43 -6 -7 -12 -50 -29
-217 -6 -65 -23 -207 -29 -255 -2 -16 -7 -61 -11 -100 -10 -108 -11 -116 -19
-180 -9 -77 -13 -116 -20 -190 -3 -33 -8 -71 -10 -85 -2 -14 -7 -61 -11 -105
-3 -44 -8 -82 -9 -85 -2 -3 -6 -39 -10 -80 -3 -41 -8 -86 -10 -100 -2 -14 -7
-54 -10 -90 -3 -36 -8 -76 -10 -90 -2 -14 -7 -54 -10 -90 -7 -70 -12 -122 -20
-185 -6 -50 -10 -85 -35 -320 -12 -104 -23 -206 -25 -225 -5 -35 -11 -97 -20
-192 -3 -29 -7 -64 -10 -78 -2 -14 -7 -56 -10 -95 -3 -38 -8 -86 -11 -106 -2
-20 -7 -56 -9 -80 -14 -141 -17 -166 -20 -189 -2 -14 -6 -50 -10 -80 -3 -30
-8 -71 -10 -90 -3 -19 -7 -64 -10 -100 -4 -36 -8 -76 -10 -90 -2 -14 -6 -54
-10 -90 -4 -36 -8 -76 -10 -90 -2 -14 -6 -54 -10 -90 -3 -36 -8 -77 -11 -92
-3 -14 -2 -28 3 -31 4 -3 43 -8 86 -12 43 -3 100 -10 127 -14 27 -4 53 -5 59
-2 5 3 17 35 26 71 109 432 371 817 697 1023 137 86 308 148 489 176 89 15
291 15 370 1 312 -54 572 -247 712 -526 39 -77 125 -359 153 -499 4 -22 8 -42
9 -45 1 -6 13 -65 19 -95 4 -20 23 -151 31 -210 15 -121 19 -225 20 -555 0
-391 -3 -450 -35 -640 -5 -30 -12 -71 -15 -91 -3 -21 -22 -95 -41 -165 -19
-71 -36 -136 -38 -144 -13 -51 -95 -259 -132 -335 -86 -177 -241 -350 -414
-463 -97 -63 -258 -135 -350 -157 -8 -2 -37 -9 -65 -15 -162 -37 -405 -32
-640 14 -97 19 -265 77 -381 131 -210 98 -325 214 -341 344 -5 47 -4 48 46 98
56 55 204 171 311 243 357 241 432 706 164 1020 -108 127 -238 205 -393 235
-36 7 -229 7 -266 0 -345 -68 -599 -320 -669 -665 -18 -86 -16 -328 3 -420 6
-30 14 -68 16 -83 18 -100 105 -302 180 -419 111 -171 237 -295 430 -423 303
-201 601 -311 986 -362 30 -4 169 -8 309 -8 225 0 321 4 410 19 14 2 48 7 75
11 274 37 642 168 920 327 294 169 629 460 794 690 l34 47 76 -70 c175 -161
422 -294 661 -358 85 -23 133 -32 250 -47 67 -8 340 -8 401 1 159 22 172 25
349 77 133 38 339 153 482 267 242 193 420 431 526 701 58 150 82 253 82 354
l0 86 -105 0 -105 0 -5 -27 c-84 -394 -301 -766 -559 -959 -84 -63 -205 -124
-311 -158 -122 -38 -181 -45 -385 -50 -166 -3 -280 15 -410 64 -221 86 -444
283 -510 450 -48 122 -114 346 -106 359 8 12 55 257 61 311 3 30 7 75 10 100
6 67 6 306 0 378 l-6 62 1215 0 1216 0 0 105 c0 284 -163 693 -404 1015 -197
264 -445 446 -741 544 -152 50 -287 69 -490 70 -207 1 -315 -13 -535 -68 -73
-19 -264 -102 -361 -158 -110 -63 -275 -195 -365 -291 l-60 -63 -109 104 c-61
57 -144 131 -185 164 -41 33 -84 67 -95 76 -55 45 -234 151 -350 207 -153 74
-346 142 -477 169 -153 31 -219 41 -348 52 -70 6 -340 5 -390 -1 -322 -41
-587 -149 -885 -364 -79 -57 -127 -95 -272 -216 -29 -24 -35 -26 -30 -10 3 11
8 56 12 100 3 44 7 91 10 105 2 14 7 59 10 100 4 41 8 86 10 100 2 14 6 59 10
100 3 41 7 89 9 105 2 17 7 66 11 110 3 44 8 91 10 105 2 14 7 57 10 95 3 39
8 84 10 100 2 17 7 62 10 100 4 39 8 86 10 105 8 74 16 155 20 204 2 28 7 71
10 96 3 25 7 70 10 100 3 30 8 77 11 103 l6 49 52 -6 c28 -4 74 -9 101 -12 28
-2 59 -6 70 -9 11 -2 43 -7 70 -10 49 -6 106 -12 175 -21 53 -6 121 -15 160
-20 78 -10 108 -14 175 -20 39 -4 81 -8 95 -9 142 -18 649 -25 779 -12 238 24
543 125 741 246 19 11 42 24 50 28 32 14 131 96 196 160 222 222 369 485 447
796 20 78 22 97 11 98 -8 1 -17 2 -21 3 -16 4 -89 16 -133 21 -25 4 -57 8 -71
10 -23 4 -29 -1 -45 -37z m1631 -2798 c153 -38 262 -98 365 -200 78 -78 134
-168 190 -305 76 -184 96 -320 92 -603 l-3 -192 -838 0 -838 0 -18 68 c-10 37
-31 105 -47 151 -25 71 -29 93 -23 140 17 142 92 396 153 519 114 228 314 379
567 427 99 19 313 16 400 -5z"/>
</g>
</svg>
