<?xml version="1.0" standalone="no"?>
<!DOCTYPE svg PUBLIC "-//W3C//DTD SVG 20010904//EN"
 "http://www.w3.org/TR/2001/REC-SVG-20010904/DTD/svg10.dtd">
<svg version="1.0" xmlns="http://www.w3.org/2000/svg"
 width="700.000000pt" height="700.000000pt" viewBox="0 0 700.000000 700.000000"
 preserveAspectRatio="xMidYMid meet">
<metadata>
Created by potrace 1.11, written by Peter Selinger 2001-2013
</metadata>
<g transform="translate(0.000000,700.000000) scale(0.100000,-0.100000)"
fill="#000000" stroke="none">
<path d="M3921 6947 c-56 -120 -156 -235 -268 -309 -99 -65 -262 -120 -407
-136 -149 -16 -584 3 -756 33 -14 3 -41 7 -60 10 -102 16 -168 29 -290 56 -74
17 -145 32 -157 35 -41 8 -490 115 -588 140 -11 3 -116 30 -234 60 -118 30
-215 53 -217 52 -2 -3 -14 -104 -19 -169 -2 -20 -6 -55 -9 -76 -3 -21 -8 -67
-11 -103 -3 -36 -7 -81 -10 -100 -15 -127 -20 -179 -30 -275 -3 -27 -8 -70
-10 -95 -11 -98 -14 -127 -20 -190 -3 -36 -8 -76 -10 -90 -2 -14 -7 -54 -10
-90 -4 -36 -8 -81 -10 -100 -2 -19 -7 -60 -10 -90 -3 -30 -8 -71 -10 -90 -2
-19 -6 -66 -10 -105 -3 -38 -8 -81 -10 -95 -3 -14 -7 -52 -10 -85 -4 -33 -8
-76 -10 -95 -2 -19 -7 -62 -10 -95 -3 -33 -8 -71 -10 -85 -2 -14 -7 -61 -10
-105 -4 -44 -8 -87 -10 -95 -2 -8 -6 -42 -10 -75 -3 -33 -8 -80 -10 -105 -3
-25 -7 -67 -10 -95 -3 -27 -7 -69 -10 -92 -7 -59 -13 -117 -20 -188 -3 -33 -8
-76 -11 -95 -2 -19 -6 -62 -9 -95 -3 -33 -7 -71 -10 -85 -2 -14 -7 -56 -10
-95 -4 -38 -10 -106 -15 -150 -5 -44 -12 -107 -16 -140 -3 -33 -8 -73 -10 -90
-2 -16 -6 -61 -9 -100 -4 -38 -8 -77 -10 -85 -2 -8 -7 -52 -11 -97 l-6 -83 41
-1 c23 -1 44 -2 49 -3 9 -3 170 -18 179 -18 4 1 17 40 29 89 111 460 365 833
704 1033 94 55 259 117 365 136 141 25 291 32 420 20 71 -7 196 -41 268 -73
240 -106 428 -337 541 -661 35 -102 77 -264 91 -352 4 -25 9 -54 11 -65 6 -29
18 -116 29 -210 27 -237 28 -932 1 -1106 -3 -13 -7 -50 -11 -83 -4 -32 -8 -68
-10 -80 -2 -11 -6 -38 -9 -60 -4 -21 -8 -41 -10 -45 -2 -3 -7 -28 -10 -54 -16
-119 -113 -404 -178 -526 -100 -184 -241 -349 -375 -440 -123 -82 -321 -163
-453 -185 -360 -59 -653 -19 -990 137 -199 92 -319 209 -343 335 -11 55 4 78
113 172 14 12 84 66 155 120 190 143 261 221 325 355 66 139 76 339 24 493
-62 183 -206 339 -382 412 -90 38 -109 42 -242 46 -230 6 -405 -61 -560 -216
-112 -113 -183 -245 -221 -410 -15 -70 -18 -113 -15 -240 2 -85 9 -180 15
-210 6 -30 14 -67 16 -82 3 -15 17 -65 31 -110 94 -301 293 -551 599 -753 230
-152 509 -267 755 -309 19 -3 46 -8 60 -11 112 -23 230 -30 470 -30 142 1 269
6 320 14 47 7 94 14 105 16 127 17 430 98 522 141 17 7 34 14 37 14 6 0 91 38
176 78 121 58 353 199 440 269 132 105 184 151 300 263 56 55 201 223 230 269
l16 23 29 -29 c204 -200 480 -351 745 -409 188 -41 496 -53 645 -26 33 6 71
13 85 16 190 32 459 155 630 289 136 106 300 280 382 407 38 59 118 199 118
207 0 2 12 30 26 61 56 123 103 300 119 450 l6 52 -116 0 c-63 0 -115 -3 -116
-7 -1 -15 -7 -38 -28 -118 -12 -44 -23 -87 -25 -95 -35 -137 -192 -449 -271
-536 -5 -6 -29 -33 -51 -60 -86 -101 -143 -153 -239 -215 -125 -82 -275 -137
-420 -157 -72 -10 -273 -8 -345 2 -150 22 -323 66 -335 85 -2 5 -17 12 -31 15
-48 12 -159 89 -230 160 -82 81 -139 165 -179 263 -15 37 -31 77 -36 88 -11
27 -34 117 -45 177 -3 14 4 61 15 105 19 76 23 90 35 163 3 19 8 49 11 65 15
84 20 189 19 380 l-1 210 1181 0 c650 0 1187 2 1194 4 16 5 11 57 -24 261 -98
563 -398 1037 -807 1278 -123 72 -291 137 -417 161 -97 19 -114 21 -185 28
-131 12 -363 6 -471 -13 -221 -38 -455 -130 -634 -249 -111 -74 -177 -129
-277 -233 l-83 -85 -102 103 c-310 309 -675 523 -1048 614 -208 50 -310 61
-575 61 -198 -1 -248 -6 -411 -39 -97 -20 -315 -109 -414 -169 -123 -74 -324
-214 -370 -258 -9 -8 -48 -43 -88 -78 l-73 -63 6 63 c3 35 7 82 9 104 2 22 7
72 10 110 3 39 8 86 11 105 4 36 10 94 20 210 3 36 8 81 10 100 3 19 7 71 10
115 4 44 8 87 10 95 2 8 7 58 10 110 4 52 8 102 10 110 2 8 6 53 10 100 4 47
9 92 10 101 2 8 6 55 10 105 4 49 9 96 10 105 2 8 6 53 10 100 4 46 9 93 10
104 1 11 3 28 4 38 1 21 -7 21 206 -8 55 -8 123 -16 150 -19 72 -8 222 -26
275 -32 73 -10 92 -12 170 -19 41 -4 86 -9 100 -11 106 -17 578 -24 710 -11
263 27 477 86 665 184 126 66 143 76 236 149 264 208 440 495 547 887 l29 106
-26 5 c-14 3 -44 8 -66 11 -22 3 -56 8 -75 11 -102 15 -93 18 -119 -39z m1607
-2791 c173 -46 338 -160 426 -296 16 -25 37 -56 46 -70 41 -63 112 -255 125
-337 3 -21 8 -50 10 -63 14 -66 23 -352 16 -507 l-1 -23 -819 0 -819 0 -13 53
c-6 28 -27 96 -45 150 -18 54 -31 103 -29 110 2 7 6 35 9 62 13 117 58 297
101 402 106 262 263 418 500 498 126 42 371 53 493 21z"/>
</g>
</svg>
